<mxfile host="app.diagrams.net" modified="2022-01-17T10:16:36.827Z" agent="5.0 (Macintosh; Intel Mac OS X 10_15_7) AppleWebKit/537.36 (KHTML, like Gecko) Chrome/96.0.4664.110 Safari/537.36" etag="m2d-LqRI3Qzde1xaHL6c" version="16.2.6" type="github">
  <diagram id="_FvS51B-tzj-jiFv8eSq" name="Page-1">
    <mxGraphModel dx="1051" dy="622" grid="1" gridSize="10" guides="1" tooltips="1" connect="1" arrows="1" fold="1" page="1" pageScale="1" pageWidth="827" pageHeight="1169" math="0" shadow="0">
      <root>
        <mxCell id="0" />
        <mxCell id="1" parent="0" />
        <mxCell id="kb5X5TEf2HbyScrXXTtf-1" value="Client&amp;nbsp;" style="rounded=1;whiteSpace=wrap;html=1;" parent="1" vertex="1">
          <mxGeometry x="80" y="60" width="120" height="60" as="geometry" />
        </mxCell>
        <mxCell id="kb5X5TEf2HbyScrXXTtf-2" value="server&amp;nbsp;" style="ellipse;whiteSpace=wrap;html=1;" parent="1" vertex="1">
          <mxGeometry x="570" y="120" width="120" height="80" as="geometry" />
        </mxCell>
        <mxCell id="kb5X5TEf2HbyScrXXTtf-3" value="" style="endArrow=classic;html=1;rounded=0;exitX=1;exitY=0.75;exitDx=0;exitDy=0;entryX=0;entryY=0.375;entryDx=0;entryDy=0;entryPerimeter=0;startArrow=none;" parent="1" source="kb5X5TEf2HbyScrXXTtf-4" target="kb5X5TEf2HbyScrXXTtf-2" edge="1">
          <mxGeometry width="50" height="50" relative="1" as="geometry">
            <mxPoint x="390" y="360" as="sourcePoint" />
            <mxPoint x="440" y="310" as="targetPoint" />
          </mxGeometry>
        </mxCell>
        <mxCell id="kb5X5TEf2HbyScrXXTtf-4" value="Enters name&amp;nbsp;" style="text;html=1;strokeColor=none;fillColor=none;align=center;verticalAlign=middle;whiteSpace=wrap;rounded=0;" parent="1" vertex="1">
          <mxGeometry x="340" y="100" width="60" height="30" as="geometry" />
        </mxCell>
        <mxCell id="kb5X5TEf2HbyScrXXTtf-5" value="" style="endArrow=none;html=1;rounded=0;exitX=1;exitY=0.75;exitDx=0;exitDy=0;entryX=0;entryY=0.375;entryDx=0;entryDy=0;entryPerimeter=0;" parent="1" source="kb5X5TEf2HbyScrXXTtf-1" target="kb5X5TEf2HbyScrXXTtf-4" edge="1">
          <mxGeometry width="50" height="50" relative="1" as="geometry">
            <mxPoint x="200" y="105" as="sourcePoint" />
            <mxPoint x="570" y="150" as="targetPoint" />
          </mxGeometry>
        </mxCell>
        <mxCell id="kb5X5TEf2HbyScrXXTtf-6" value="" style="endArrow=classic;html=1;rounded=0;exitX=0.017;exitY=0.6;exitDx=0;exitDy=0;exitPerimeter=0;startArrow=none;" parent="1" source="kb5X5TEf2HbyScrXXTtf-7" target="kb5X5TEf2HbyScrXXTtf-10" edge="1">
          <mxGeometry width="50" height="50" relative="1" as="geometry">
            <mxPoint x="390" y="350" as="sourcePoint" />
            <mxPoint x="170" y="270" as="targetPoint" />
            <Array as="points" />
          </mxGeometry>
        </mxCell>
        <mxCell id="kb5X5TEf2HbyScrXXTtf-7" value="Name in lights and button options&amp;nbsp;" style="text;html=1;strokeColor=none;fillColor=none;align=center;verticalAlign=middle;whiteSpace=wrap;rounded=0;" parent="1" vertex="1">
          <mxGeometry x="330" y="200" width="60" height="30" as="geometry" />
        </mxCell>
        <mxCell id="kb5X5TEf2HbyScrXXTtf-8" value="" style="endArrow=none;html=1;rounded=0;exitX=0.017;exitY=0.6;exitDx=0;exitDy=0;exitPerimeter=0;entryX=0.75;entryY=1;entryDx=0;entryDy=0;" parent="1" source="kb5X5TEf2HbyScrXXTtf-2" target="kb5X5TEf2HbyScrXXTtf-7" edge="1">
          <mxGeometry width="50" height="50" relative="1" as="geometry">
            <mxPoint x="572.04" y="168" as="sourcePoint" />
            <mxPoint x="170" y="120" as="targetPoint" />
            <Array as="points" />
          </mxGeometry>
        </mxCell>
        <mxCell id="kb5X5TEf2HbyScrXXTtf-9" value="server&amp;nbsp;" style="ellipse;whiteSpace=wrap;html=1;aspect=fixed;" parent="1" vertex="1">
          <mxGeometry x="590" y="260" width="80" height="80" as="geometry" />
        </mxCell>
        <mxCell id="kb5X5TEf2HbyScrXXTtf-10" value="client&amp;nbsp;" style="rounded=1;whiteSpace=wrap;html=1;" parent="1" vertex="1">
          <mxGeometry x="80" y="290" width="120" height="60" as="geometry" />
        </mxCell>
        <mxCell id="kb5X5TEf2HbyScrXXTtf-11" value="" style="endArrow=classic;html=1;rounded=0;exitX=1;exitY=0.5;exitDx=0;exitDy=0;" parent="1" source="kb5X5TEf2HbyScrXXTtf-10" edge="1">
          <mxGeometry width="50" height="50" relative="1" as="geometry">
            <mxPoint x="450" y="350" as="sourcePoint" />
            <mxPoint x="580" y="310" as="targetPoint" />
          </mxGeometry>
        </mxCell>
        <mxCell id="kb5X5TEf2HbyScrXXTtf-12" value="Selects Rock/Paper/Scissors&amp;nbsp;" style="text;html=1;align=center;verticalAlign=middle;resizable=0;points=[];autosize=1;strokeColor=none;fillColor=none;" parent="1" vertex="1">
          <mxGeometry x="305" y="290" width="170" height="20" as="geometry" />
        </mxCell>
        <mxCell id="kb5X5TEf2HbyScrXXTtf-13" value="" style="endArrow=classic;html=1;rounded=0;exitX=0.35;exitY=1;exitDx=0;exitDy=0;exitPerimeter=0;entryX=1;entryY=1;entryDx=0;entryDy=0;" parent="1" source="kb5X5TEf2HbyScrXXTtf-9" target="kb5X5TEf2HbyScrXXTtf-10" edge="1">
          <mxGeometry width="50" height="50" relative="1" as="geometry">
            <mxPoint x="410" y="320" as="sourcePoint" />
            <mxPoint x="460" y="270" as="targetPoint" />
          </mxGeometry>
        </mxCell>
        <mxCell id="kb5X5TEf2HbyScrXXTtf-14" value="Returns page according to user choice&amp;nbsp;" style="text;html=1;strokeColor=none;fillColor=none;align=center;verticalAlign=middle;whiteSpace=wrap;rounded=0;" parent="1" vertex="1">
          <mxGeometry x="370" y="380" width="60" height="30" as="geometry" />
        </mxCell>
      </root>
    </mxGraphModel>
  </diagram>
</mxfile>
